<mxfile host="app.diagrams.net" modified="2022-11-25T12:39:48.390Z" agent="5.0 (Windows NT 10.0; Win64; x64) AppleWebKit/537.36 (KHTML, like Gecko) Chrome/107.0.0.0 Safari/537.36" etag="3OmoWi9cbDHfRV6csCv9" version="20.4.0" type="github">
  <diagram id="lB1xVWnNL5tqo1afQDx-" name="Página-1">
    <mxGraphModel dx="1045" dy="1112" grid="1" gridSize="10" guides="1" tooltips="1" connect="1" arrows="1" fold="1" page="1" pageScale="1" pageWidth="1169" pageHeight="827" math="0" shadow="0">
      <root>
        <mxCell id="0" />
        <mxCell id="1" parent="0" />
        <mxCell id="ebFDUS_wOakpO1HY1WvT-3" style="edgeStyle=orthogonalEdgeStyle;rounded=0;orthogonalLoop=1;jettySize=auto;html=1;exitX=0.5;exitY=0.5;exitDx=0;exitDy=0;exitPerimeter=0;" edge="1" parent="1" source="ebFDUS_wOakpO1HY1WvT-1" target="ebFDUS_wOakpO1HY1WvT-2">
          <mxGeometry relative="1" as="geometry" />
        </mxCell>
        <mxCell id="ebFDUS_wOakpO1HY1WvT-1" value="Cliente" style="shape=umlActor;verticalLabelPosition=bottom;verticalAlign=top;html=1;outlineConnect=0;" vertex="1" parent="1">
          <mxGeometry x="555" y="30" width="30" height="60" as="geometry" />
        </mxCell>
        <mxCell id="ebFDUS_wOakpO1HY1WvT-9" style="edgeStyle=orthogonalEdgeStyle;rounded=0;orthogonalLoop=1;jettySize=auto;html=1;" edge="1" parent="1" source="ebFDUS_wOakpO1HY1WvT-2" target="ebFDUS_wOakpO1HY1WvT-6">
          <mxGeometry relative="1" as="geometry" />
        </mxCell>
        <mxCell id="ebFDUS_wOakpO1HY1WvT-10" style="edgeStyle=orthogonalEdgeStyle;rounded=0;orthogonalLoop=1;jettySize=auto;html=1;entryX=0.5;entryY=0;entryDx=0;entryDy=0;" edge="1" parent="1" source="ebFDUS_wOakpO1HY1WvT-2" target="ebFDUS_wOakpO1HY1WvT-5">
          <mxGeometry relative="1" as="geometry" />
        </mxCell>
        <mxCell id="ebFDUS_wOakpO1HY1WvT-11" style="edgeStyle=orthogonalEdgeStyle;rounded=0;orthogonalLoop=1;jettySize=auto;html=1;entryX=0.5;entryY=0;entryDx=0;entryDy=0;" edge="1" parent="1" source="ebFDUS_wOakpO1HY1WvT-2" target="ebFDUS_wOakpO1HY1WvT-7">
          <mxGeometry relative="1" as="geometry" />
        </mxCell>
        <mxCell id="ebFDUS_wOakpO1HY1WvT-12" style="edgeStyle=orthogonalEdgeStyle;rounded=0;orthogonalLoop=1;jettySize=auto;html=1;entryX=0.5;entryY=0;entryDx=0;entryDy=0;" edge="1" parent="1" source="ebFDUS_wOakpO1HY1WvT-2" target="ebFDUS_wOakpO1HY1WvT-8">
          <mxGeometry relative="1" as="geometry" />
        </mxCell>
        <mxCell id="ebFDUS_wOakpO1HY1WvT-13" style="edgeStyle=orthogonalEdgeStyle;rounded=0;orthogonalLoop=1;jettySize=auto;html=1;entryX=0.5;entryY=0;entryDx=0;entryDy=0;" edge="1" parent="1" source="ebFDUS_wOakpO1HY1WvT-2" target="ebFDUS_wOakpO1HY1WvT-4">
          <mxGeometry relative="1" as="geometry" />
        </mxCell>
        <mxCell id="ebFDUS_wOakpO1HY1WvT-2" value="ANEXO EDN" style="rounded=1;whiteSpace=wrap;html=1;fillColor=#dae8fc;strokeColor=#6c8ebf;" vertex="1" parent="1">
          <mxGeometry x="505" y="140" width="130" height="30" as="geometry" />
        </mxCell>
        <mxCell id="ebFDUS_wOakpO1HY1WvT-4" value="Flujo AR" style="shape=process;whiteSpace=wrap;html=1;backgroundOutline=1;fillColor=#d5e8d4;strokeColor=#82b366;" vertex="1" parent="1">
          <mxGeometry x="240" y="230" width="90" height="40" as="geometry" />
        </mxCell>
        <mxCell id="ebFDUS_wOakpO1HY1WvT-5" value="Flujo CP" style="shape=process;whiteSpace=wrap;html=1;backgroundOutline=1;fillColor=#d5e8d4;strokeColor=#82b366;" vertex="1" parent="1">
          <mxGeometry x="380" y="230" width="90" height="40" as="geometry" />
        </mxCell>
        <mxCell id="ebFDUS_wOakpO1HY1WvT-6" value="Flujo INV" style="shape=process;whiteSpace=wrap;html=1;backgroundOutline=1;fillColor=#d5e8d4;strokeColor=#82b366;" vertex="1" parent="1">
          <mxGeometry x="525" y="230" width="90" height="40" as="geometry" />
        </mxCell>
        <mxCell id="ebFDUS_wOakpO1HY1WvT-7" value="Flujo PE" style="shape=process;whiteSpace=wrap;html=1;backgroundOutline=1;fillColor=#d5e8d4;strokeColor=#82b366;" vertex="1" parent="1">
          <mxGeometry x="660" y="230" width="90" height="40" as="geometry" />
        </mxCell>
        <mxCell id="ebFDUS_wOakpO1HY1WvT-8" value="Flujo MB" style="shape=process;whiteSpace=wrap;html=1;backgroundOutline=1;fillColor=#d5e8d4;strokeColor=#82b366;" vertex="1" parent="1">
          <mxGeometry x="800" y="230" width="90" height="40" as="geometry" />
        </mxCell>
        <mxCell id="ebFDUS_wOakpO1HY1WvT-14" value="" style="shape=actor;whiteSpace=wrap;html=1;fillColor=#f5f5f5;fontColor=#333333;strokeColor=#666666;" vertex="1" parent="1">
          <mxGeometry x="490" y="354" width="40" height="60" as="geometry" />
        </mxCell>
        <mxCell id="ebFDUS_wOakpO1HY1WvT-15" value="Ejecutivo CCL Servicios Especificos" style="text;html=1;strokeColor=none;fillColor=none;align=center;verticalAlign=middle;whiteSpace=wrap;rounded=0;" vertex="1" parent="1">
          <mxGeometry x="550" y="374" width="130" height="30" as="geometry" />
        </mxCell>
        <mxCell id="ebFDUS_wOakpO1HY1WvT-17" value="" style="shape=singleArrow;direction=south;whiteSpace=wrap;html=1;arrowWidth=0.2;arrowSize=0.4;fillColor=#e1d5e7;strokeColor=#9673a6;" vertex="1" parent="1">
          <mxGeometry x="540" y="284" width="60" height="46" as="geometry" />
        </mxCell>
        <mxCell id="ebFDUS_wOakpO1HY1WvT-18" value="SalesForce Derivación EDN" style="swimlane;fillColor=#dae8fc;strokeColor=#6c8ebf;" vertex="1" parent="1">
          <mxGeometry x="430" y="450" width="290" height="50" as="geometry" />
        </mxCell>
        <mxCell id="ebFDUS_wOakpO1HY1WvT-19" value="" style="shape=actor;whiteSpace=wrap;html=1;fillColor=#f5f5f5;fontColor=#333333;strokeColor=#666666;" vertex="1" parent="1">
          <mxGeometry x="475" y="556" width="40" height="60" as="geometry" />
        </mxCell>
        <mxCell id="ebFDUS_wOakpO1HY1WvT-20" value="Ejecutivo EDN Sucursal" style="text;html=1;strokeColor=none;fillColor=none;align=center;verticalAlign=middle;whiteSpace=wrap;rounded=0;" vertex="1" parent="1">
          <mxGeometry x="535" y="573" width="130" height="30" as="geometry" />
        </mxCell>
        <mxCell id="ebFDUS_wOakpO1HY1WvT-22" value="" style="shape=singleArrow;direction=south;whiteSpace=wrap;html=1;arrowWidth=0.2;arrowSize=0.4;fillColor=#e1d5e7;strokeColor=#9673a6;" vertex="1" parent="1">
          <mxGeometry x="535" y="514" width="60" height="46" as="geometry" />
        </mxCell>
        <mxCell id="ebFDUS_wOakpO1HY1WvT-23" value="SalesForce Atención Solicitud Cliente" style="swimlane;fillColor=#dae8fc;strokeColor=#6c8ebf;" vertex="1" parent="1">
          <mxGeometry x="425" y="630" width="290" height="50" as="geometry" />
        </mxCell>
      </root>
    </mxGraphModel>
  </diagram>
</mxfile>
